HIERARCHY
ROOT Hips
{
	OFFSET 0.000000 89.005402 0.000000
	CHANNELS 6 Xposition Yposition Zposition Xrotation Yrotation Zrotation
	JOINT Spine
	{
		OFFSET 0.116900 10.681000 0.373400
		CHANNELS 3 Xrotation Yrotation Zrotation
		JOINT Spine1
		{
			OFFSET 0.000000 13.840401 0.053500
			CHANNELS 3 Xrotation Yrotation Zrotation
			JOINT Spine2
			{
				OFFSET 0.000000 14.712700 -0.366200
				CHANNELS 3 Xrotation Yrotation Zrotation
				JOINT Neck
				{
					OFFSET 0.000000 35.415497 -3.314200
					CHANNELS 3 Xrotation Yrotation Zrotation
					JOINT Head
					{
						OFFSET 0.000000 16.899200 1.218300
						CHANNELS 3 Xrotation Yrotation Zrotation
						JOINT HeadTop_End
						{
							OFFSET 0.000000 22.206207 2.192500
							CHANNELS 3 Xrotation Yrotation Zrotation
							End Site
							{
								OFFSET 0.000000 22.314178 0.000000
							}
						}
					}
				}
				JOINT LeftShoulder
				{
					OFFSET 12.896400 26.716293 -4.548400
					CHANNELS 3 Xrotation Yrotation Zrotation
					JOINT LeftArm
					{
						OFFSET 19.027000 -4.857010 -1.718400
						CHANNELS 3 Xrotation Yrotation Zrotation
						JOINT LeftForeArm
						{
							OFFSET 24.179897 0.000000 0.000000
							CHANNELS 3 Xrotation Yrotation Zrotation
							JOINT LeftHand
							{
								OFFSET 27.156403 0.000000 0.000000
								CHANNELS 3 Xrotation Yrotation Zrotation
								JOINT LeftHandIndex1
								{
									OFFSET 16.441200 0.000000 0.000000
									CHANNELS 3 Xrotation Yrotation Zrotation
									JOINT LeftHandIndex2
									{
										OFFSET 4.821899 0.000000 0.000000
										CHANNELS 3 Xrotation Yrotation Zrotation
										JOINT LeftHandIndex3
										{
											OFFSET 6.386497 0.000000 0.000000
											CHANNELS 3 Xrotation Yrotation Zrotation
											JOINT LeftHandIndex4
											{
												OFFSET 5.188988 0.000000 0.000000
												CHANNELS 3 Xrotation Yrotation Zrotation
												End Site
												{
													OFFSET -0.178703 5.185913 0.000177
												}
											}
										}
									}
								}
								JOINT LeftHandThumb1
								{
									OFFSET 6.534897 -5.032593 5.900300
									CHANNELS 3 Xrotation Yrotation Zrotation
									JOINT LeftHandThumb2
									{
										OFFSET 3.818176 -2.204422 2.204423
										CHANNELS 3 Xrotation Yrotation Zrotation
										JOINT LeftHandThumb3
										{
											OFFSET 3.252098 -1.877594 1.877601
											CHANNELS 3 Xrotation Yrotation Zrotation
											JOINT LeftHandThumb4
											{
												OFFSET 5.251778 -3.032120 3.032117
												CHANNELS 3 Xrotation Yrotation Zrotation
												End Site
												{
													OFFSET 0.000023 6.780014 0.000000
												}
											}
										}
									}
								}
							}
						}
					}
				}
				JOINT RightShoulder
				{
					OFFSET -12.896300 26.716293 -4.548400
					CHANNELS 3 Xrotation Yrotation Zrotation
					JOINT RightArm
					{
						OFFSET -19.027000 -4.857010 -1.718400
						CHANNELS 3 Xrotation Yrotation Zrotation
						JOINT RightForeArm
						{
							OFFSET -24.179897 0.000000 0.000000
							CHANNELS 3 Xrotation Yrotation Zrotation
							JOINT RightHand
							{
								OFFSET -27.156403 0.000000 0.000000
								CHANNELS 3 Xrotation Yrotation Zrotation
								JOINT RightHandThumb1
								{
									OFFSET -6.591202 -4.852203 5.988100
									CHANNELS 3 Xrotation Yrotation Zrotation
									JOINT RightHandThumb2
									{
										OFFSET -3.818176 -2.204422 2.204423
										CHANNELS 3 Xrotation Yrotation Zrotation
										JOINT RightHandThumb3
										{
											OFFSET -3.252098 -1.877594 1.877601
											CHANNELS 3 Xrotation Yrotation Zrotation
											JOINT RightHandThumb4
											{
												OFFSET -5.251778 -3.032120 3.032117
												CHANNELS 3 Xrotation Yrotation Zrotation
												End Site
												{
													OFFSET -0.000023 6.780014 0.000000
												}
											}
										}
									}
								}
								JOINT RightHandIndex1
								{
									OFFSET -16.029404 0.000000 0.000000
									CHANNELS 3 Xrotation Yrotation Zrotation
									JOINT RightHandIndex2
									{
										OFFSET -5.213303 0.000000 0.000000
										CHANNELS 3 Xrotation Yrotation Zrotation
										JOINT RightHandIndex3
										{
											OFFSET -6.386528 0.000000 0.000000
											CHANNELS 3 Xrotation Yrotation Zrotation
											JOINT RightHandIndex4
											{
												OFFSET -5.189026 0.000000 0.000000
												CHANNELS 3 Xrotation Yrotation Zrotation
												End Site
												{
													OFFSET 0.236702 5.183624 0.001972
												}
											}
										}
									}
								}
							}
						}
					}
				}
			}
		}
	}
	JOINT LeftUpLeg
	{
		OFFSET 14.073000 -7.904099 -1.463000
		CHANNELS 3 Xrotation Yrotation Zrotation
		JOINT LeftLeg
		{
			OFFSET -0.109806 -34.073280 4.093200
			CHANNELS 3 Xrotation Yrotation Zrotation
			JOINT LeftFoot
			{
				OFFSET 0.109806 -29.899420 -6.319000
				CHANNELS 3 Xrotation Yrotation Zrotation
				JOINT LeftToeBase
				{
					OFFSET 1.551100 -14.988700 20.535801
					CHANNELS 3 Xrotation Yrotation Zrotation
					JOINT LeftToe_End
					{
						OFFSET 0.221200 0.570800 13.248301
						CHANNELS 3 Xrotation Yrotation Zrotation
						End Site
						{
							OFFSET 0.000000 13.262435 0.000000
						}
					}
				}
			}
		}
	}
	JOINT RightUpLeg
	{
		OFFSET -13.839300 -7.904099 -1.463000
		CHANNELS 3 Xrotation Yrotation Zrotation
		JOINT RightLeg
		{
			OFFSET 0.109694 -34.073219 4.093300
			CHANNELS 3 Xrotation Yrotation Zrotation
			JOINT RightFoot
			{
				OFFSET -0.109694 -29.899384 -6.319200
				CHANNELS 3 Xrotation Yrotation Zrotation
				JOINT RightToeBase
				{
					OFFSET -1.551100 -14.988700 20.535801
					CHANNELS 3 Xrotation Yrotation Zrotation
					JOINT RightToe_End
					{
						OFFSET -0.221200 0.570900 13.248299
						CHANNELS 3 Xrotation Yrotation Zrotation
						End Site
						{
							OFFSET 0.000000 13.262440 0.000000
						}
					}
				}
			}
		}
	}
}
MOTION
Frames: 4
Frame Time: 0.033333
2.157228 82.896828 0.950191 6.807920 6.142334 4.900764 5.489677 1.361531 0.140185 10.792547 2.274552 -2.157589 10.793200 2.281455 -2.146109 -4.316245 -2.015646 -0.913918 -19.483504 -10.517147 -2.524031 -0.000001 -0.000000 -0.000000 0.576893 -1.010226 -4.645890 -20.622373 -21.830336 -49.488586 0.000010 -47.104314 0.000010 -14.998385 -4.949023 -24.576286 0.687844 3.004744 -25.782479 0.461684 2.483250 -21.061143 0.116346 1.262883 -10.525567 0.000001 0.000000 0.000001 12.048852 -5.643457 -9.741659 6.522363 19.473814 3.490591 0.822224 7.282107 4.154326 0.000004 0.000000 -0.000000 0.970307 3.913152 8.467176 -21.185061 18.376040 45.746831 -0.000012 27.410524 0.000008 -16.680024 -5.067522 29.198645 -1.849251 -3.581796 -6.586149 6.538523 -14.210589 -1.616562 -0.300815 -2.620550 -2.997758 0.000001 0.000000 -0.000000 1.786561 -4.657664 41.953068 0.599854 -2.829987 23.930428 0.151490 -1.446402 11.957804 0.000001 0.000001 -0.000000 -34.037022 6.227934 0.552924 59.424497 0.191624 -0.244561 -9.751704 0.287038 -1.193970 -10.089952 0.397084 -2.233573 -0.000001 0.000001 -0.000000 -20.461486 -6.139101 -11.371867 37.248686 -7.150468 -1.196351 -23.354287 -2.748026 8.089738 -0.004669 0.000002 -0.000002 -0.000000 -0.000000 0.000000 
1.811179 83.310158 4.232083 5.585516 5.670562 5.499532 5.709079 1.894843 -0.259032 11.303797 3.415136 -2.942888 11.304228 3.425984 -2.927231 -4.626909 -2.290506 -1.088175 -19.573579 -12.339135 -1.830403 0.000000 -0.000000 -0.000000 0.605159 -0.962249 -5.551363 -16.667079 -21.520905 -43.768259 -0.000006 -50.839567 0.000016 -18.447001 -4.002222 -25.061135 0.729741 3.089844 -26.570641 0.461690 2.483255 -21.061132 0.116333 1.262883 -10.525566 -0.000000 -0.000000 0.000001 12.048853 -5.643462 -9.741655 6.522366 19.473812 3.490594 0.822213 7.282109 4.154331 -0.000005 0.000001 -0.000001 0.970183 4.210356 8.124431 -19.811037 20.202173 44.232189 -0.000006 29.673316 0.000021 -18.562989 -3.244991 28.450359 -1.849251 -3.581796 -6.586153 6.538521 -14.210594 -1.616559 -0.300816 -2.620551 -2.997759 -0.000004 0.000000 0.000001 1.677344 -4.533622 40.590028 0.599851 -2.829988 23.930425 0.151489 -1.446405 11.957805 0.000001 -0.000002 0.000002 -35.556404 5.709721 0.025022 54.017282 1.717355 -1.344968 -9.981178 0.345937 -1.373269 -0.022705 -0.000003 0.000001 -0.000000 0.000001 -0.000000 -14.869081 -7.210929 -11.125178 34.383278 -6.401074 -1.490722 -25.110839 -2.941345 8.003197 -0.002200 0.000000 0.000001 -0.000000 0.000000 -0.000000 
1.554523 83.332970 7.478898 4.985541 5.085906 5.762636 5.894321 2.337880 -0.542954 11.749392 4.320756 -3.483700 11.748657 4.335120 -3.466941 -5.018347 -2.504273 -1.198449 -19.989532 -13.787488 -1.141025 0.000000 0.000000 -0.000000 0.625469 -0.543056 -6.870216 -13.268284 -20.277058 -38.432402 -0.000001 -53.615766 -0.000002 -21.737144 -4.404829 -25.756824 0.846539 3.312769 -28.661895 0.461675 2.483251 -21.061143 0.116337 1.262892 -10.525560 -0.000003 0.000000 -0.000001 12.048851 -5.643460 -9.741661 6.522366 19.473815 3.490590 0.822215 7.282106 4.154326 0.000001 0.000002 -0.000003 0.988741 4.887847 7.696257 -19.193764 22.456158 42.375334 0.000008 30.746260 -0.000028 -20.699129 -1.308121 27.809397 -1.849250 -3.581793 -6.586150 6.538526 -14.210591 -1.616562 -0.300817 -2.620551 -2.997759 -0.000001 0.000000 -0.000000 1.582414 -4.420755 39.374046 0.599854 -2.829987 23.930430 0.151487 -1.446399 11.957810 0.000000 0.000002 0.000000 -37.695609 4.907331 -0.246772 48.429770 2.697664 -2.088813 -10.063876 0.352714 -1.340488 -0.001010 -0.000008 0.000000 0.000000 0.000001 -0.000000 -10.167413 -8.090012 -10.784779 31.966631 -5.759998 -1.605309 -26.927577 -3.092623 8.007288 -0.020091 0.000004 -0.000001 -0.000000 0.000000 0.000000 
1.384953 83.044968 10.690756 5.041114 4.217111 5.772767 5.989594 2.725973 -0.750253 12.014535 5.094781 -3.810781 12.012307 5.110915 -3.794991 -5.476800 -2.653997 -1.374079 -20.612719 -14.960349 -0.554440 -0.000001 -0.000000 0.000000 0.642576 0.123907 -8.123820 -11.072713 -18.027757 -34.834989 0.000006 -54.684759 -0.000004 -24.603082 -6.175811 -27.103586 1.027139 3.623059 -31.646773 0.461694 2.483251 -21.061131 0.116326 1.262891 -10.525566 -0.000003 -0.000001 -0.000003 12.048852 -5.643460 -9.741660 6.522367 19.473812 3.490593 0.822213 7.282108 4.154327 -0.000003 0.000001 0.000000 1.017781 5.805344 7.186299 -19.169013 24.891528 40.472989 -0.000013 30.712721 0.000013 -22.246085 0.270202 27.297742 -1.849253 -3.581798 -6.586148 6.538516 -14.210588 -1.616561 -0.300813 -2.620549 -2.997759 0.000001 -0.000000 0.000000 1.447468 -4.251486 37.589369 0.599858 -2.829993 23.930428 0.151487 -1.446399 11.957807 0.000000 -0.000003 -0.000001 -40.188304 3.925731 -0.019251 42.585441 3.674687 -2.530258 -9.948704 0.300605 -1.727991 0.007140 -0.000002 -0.000000 -0.000000 0.000001 -0.000000 -6.433978 -8.766103 -10.413008 29.926791 -4.941037 -1.603203 -28.750793 -3.188827 7.985754 -0.008630 0.000000 -0.000000 0.000000 0.000000 0.000000 
